<svg version="1.1" id="Ebene_1" xmlns="http://www.w3.org/2000/svg" xmlns:xlink="http://www.w3.org/1999/xlink" x="0px" y="0px"
	 viewBox="0 0 1000 1000" enable-background="new 0 0 1000 1000" xml:space="preserve">
	<g display="none">
		<path display="inline" fill="#FF0000" d="M286.81,40c3.99,0,7.23,3.25,7.23,7.24c0,48.13,39.13,87.29,87.23,87.29
			c12.84,0,25.31-2.8,37.09-8.33l173.47-81.48c0.97-0.46,2.01-0.69,3.08-0.69c0.88,0,1.74,0.16,2.57,0.47l357.85,135.87
			c2.79,1.06,4.67,3.78,4.67,6.76v2.25c0,3.99-3.25,7.23-7.23,7.23h-4.48h-0.24l-0.24,0c-100.7,1.23-182.63,84.26-182.63,185.09
			c0,70.91,39.47,134.51,103.01,165.97c2.48,1.23,4.03,3.71,4.03,6.48v191.79v0.29l0,0.29c0.71,48.91,34.29,93.97,83.57,112.11
			c2.48,0.91,4.22,3.63,4.22,6.59v87.54c0,3.99-3.25,7.23-7.23,7.23H47.23c-3.99,0-7.23-3.25-7.23-7.23V307.73
			c0-2.79,1.63-5.36,4.16-6.55l101.99-47.88c30.47-14.31,50.16-45.3,50.16-78.97V47.23c0-3.99,3.25-7.23,7.23-7.23H286.81 M286.81,0
			h-83.26c-26.09,0-47.23,21.15-47.23,47.23v127.1c0,18.31-10.59,34.98-27.16,42.76L27.16,264.97C10.59,272.75,0,289.42,0,307.73
			v645.04C0,978.85,21.15,1000,47.23,1000h905.53c26.09,0,47.23-21.15,47.23-47.23v-87.54c0-19.59-12.01-37.36-30.39-44.13
			c-31.85-11.73-56.9-40.9-57.4-75.16V554.15c0-17.96-10.18-34.35-26.28-42.32c-47.85-23.69-80.76-73.06-80.76-130.12
			c0-79.53,63.91-144.12,143.12-145.09h4.48c26.09,0,47.23-21.15,47.23-47.23v-2.25c0-19.62-12.13-37.2-30.47-44.16L611.68,7.11
			c-5.41-2.05-11.09-3.08-16.77-3.08c-6.87,0-13.73,1.5-20.08,4.48L401.36,89.99c-6.61,3.11-13.43,4.54-20.08,4.54
			c-24.84,0-47.23-19.99-47.23-47.29v0C334.05,21.15,312.9,0,286.81,0L286.81,0z"/>
	</g>
	<path display="none" fill="none" stroke="#000000" stroke-width="10" stroke-miterlimit="10" d="M512.22,243.33h-81
		c-65.86,0.8-119,54.45-119,120.5c0,55.65,37.73,102.48,89,116.33v186.17c0.54,37.09,30.78,67,68,67L512.22,243.33z"/>
	<path display="none" fill="none" stroke="#000000" stroke-width="10" stroke-miterlimit="10" d="M468.89,733.34
		c37.22,0,67.46-29.91,68-67V480.17c51.27-13.85,89-60.68,89-116.33c0-66.05-53.14-119.7-119-120.5h-38L468.89,733.34z"/>
	<path display="none" fill="none" stroke="#FF0000" stroke-width="50" stroke-linecap="round" stroke-miterlimit="10" d="
		M536.45,726.33c34.5,0,62.54-27.73,63.04-62.11V508.38c0-9.5,5.71-18.03,14.45-21.75c40-17,68.06-56.64,68.06-102.85
		c0-61.23-49.27-110.96-110.32-111.71h-35.23"/>
	<g display="none">
		<path display="inline" d="M291.33,540v420H130.36V540H291.33 M331.33,500H90.36v500h240.96V500L331.33,500z"/>
	</g>
	<g>
		<path d="M615.42,540c3.99,0,7.23,3.25,7.23,7.23V786.5c0,3.99-3.25,7.23-7.23,7.23H465.31c-3.99,0-7.23-3.25-7.23-7.23V547.23
			c0-3.99,3.25-7.23,7.23-7.23H615.42 M615.42,500H465.31c-26.09,0-47.23,21.15-47.23,47.23V786.5c0,26.09,21.15,47.23,47.23,47.23
			h150.11c26.09,0,47.23-21.15,47.23-47.23V547.23C662.65,521.15,641.5,500,615.42,500L615.42,500z"/>
	</g>
	<g>
		<path d="M286.81,40c3.99,0,7.23,3.25,7.23,7.24c0,48.13,39.13,87.29,87.23,87.29c12.84,0,25.31-2.8,37.09-8.33l173.47-81.48
			c0.97-0.46,2.01-0.69,3.08-0.69c0.88,0,1.74,0.16,2.57,0.47l357.85,135.87c2.79,1.06,4.67,3.78,4.67,6.76v2.25
			c0,3.99-3.25,7.23-7.23,7.23h-4.48h-0.24l-0.24,0c-100.7,1.23-182.63,84.26-182.63,185.09c0,70.91,39.47,134.51,103.01,165.97
			c2.48,1.23,4.03,3.71,4.03,6.48v191.79v0.29l0,0.29c0.71,48.91,34.29,93.97,83.57,112.11c2.48,0.91,4.22,3.63,4.22,6.59v87.54
			c0,3.99-3.25,7.23-7.23,7.23h-614.2c-3.99,0-7.23-3.25-7.23-7.23v-404.1c0-26.83-21.83-48.66-48.66-48.66H139.02
			c-26.83,0-48.66,21.83-48.66,48.66v404.1c0,3.99-3.25,7.23-7.23,7.23H47.23c-3.99,0-7.23-3.25-7.23-7.23V307.73
			c0-2.79,1.63-5.36,4.16-6.55l101.99-47.88c30.47-14.31,50.16-45.3,50.16-78.97V47.23c0-3.99,3.25-7.23,7.23-7.23H286.81 M286.81,0
			h-83.26c-26.09,0-47.23,21.15-47.23,47.23v127.1c0,18.31-10.59,34.98-27.16,42.76L27.16,264.97C10.59,272.75,0,289.42,0,307.73
			v645.04C0,978.85,21.15,1000,47.23,1000h35.89c26.09,0,47.23-21.15,47.23-47.23v-404.1c0-4.78,3.88-8.66,8.66-8.66h143.64
			c4.78,0,8.66,3.88,8.66,8.66v404.1c0,26.09,21.15,47.23,47.23,47.23h614.2c26.09,0,47.23-21.15,47.23-47.23v-87.54
			c0-19.59-12.01-37.36-30.39-44.13c-31.85-11.73-56.9-40.9-57.4-75.16V554.15c0-17.96-10.18-34.35-26.28-42.32
			c-47.85-23.69-80.76-73.06-80.76-130.12c0-79.53,63.91-144.12,143.12-145.09h4.48c26.09,0,47.23-21.15,47.23-47.23v-2.25
			c0-19.62-12.13-37.2-30.47-44.16L611.68,7.11c-5.41-2.05-11.09-3.08-16.77-3.08c-6.87,0-13.73,1.5-20.08,4.48L401.36,89.99
			c-6.61,3.11-13.44,4.54-20.08,4.54c-24.84,0-47.23-19.99-47.23-47.29v0C334.05,21.15,312.9,0,286.81,0L286.81,0z"/>
	</g>
	<g>
		<path d="M615.42,540c3.99,0,7.23,3.25,7.23,7.23V786.5c0,3.99-3.25,7.23-7.23,7.23H465.31c-3.99,0-7.23-3.25-7.23-7.23V547.23
			c0-3.99,3.25-7.23,7.23-7.23H615.42 M615.42,500H465.31c-26.09,0-47.23,21.15-47.23,47.23V786.5c0,26.09,21.15,47.23,47.23,47.23
			h150.11c26.09,0,47.23-21.15,47.23-47.23V547.23C662.65,521.15,641.5,500,615.42,500L615.42,500z"/>
	</g>
</svg>
